<svg width="253" height="116" viewBox="0 0 253 116" fill="none" xmlns="http://www.w3.org/2000/svg">
<g filter="url(#filter0_d_306_1563)">
<rect x="18" y="18" width="193" height="56" rx="15" fill="#FE5F00"/>
<path d="M39.15 38.556C40.778 38.556 42.2007 38.8787 43.418 39.524C44.6353 40.1693 45.574 41.0787 46.234 42.252C46.9087 43.4107 47.246 44.7527 47.246 46.278C47.246 47.7887 46.9087 49.1307 46.234 50.304C45.574 51.4773 44.628 52.3867 43.396 53.032C42.1787 53.6773 40.7633 54 39.15 54H33.364V38.556H39.15ZM38.908 50.744C40.3307 50.744 41.438 50.3553 42.23 49.578C43.022 48.8007 43.418 47.7007 43.418 46.278C43.418 44.8553 43.022 43.748 42.23 42.956C41.438 42.164 40.3307 41.768 38.908 41.768H37.126V50.744H38.908ZM54.9364 54.176C53.7337 54.176 52.6484 53.9193 51.6804 53.406C50.727 52.8927 49.9717 52.1593 49.4144 51.206C48.8717 50.2527 48.6004 49.138 48.6004 47.862C48.6004 46.6007 48.879 45.4933 49.4364 44.54C49.9937 43.572 50.7564 42.8313 51.7244 42.318C52.6924 41.8047 53.7777 41.548 54.9804 41.548C56.183 41.548 57.2684 41.8047 58.2364 42.318C59.2044 42.8313 59.967 43.572 60.5244 44.54C61.0817 45.4933 61.3604 46.6007 61.3604 47.862C61.3604 49.1233 61.0744 50.238 60.5024 51.206C59.945 52.1593 59.175 52.8927 58.1924 53.406C57.2244 53.9193 56.139 54.176 54.9364 54.176ZM54.9364 50.92C55.655 50.92 56.2637 50.656 56.7624 50.128C57.2757 49.6 57.5324 48.8447 57.5324 47.862C57.5324 46.8793 57.283 46.124 56.7844 45.596C56.3004 45.068 55.699 44.804 54.9804 44.804C54.247 44.804 53.6384 45.068 53.1544 45.596C52.6704 46.1093 52.4284 46.8647 52.4284 47.862C52.4284 48.8447 52.663 49.6 53.1324 50.128C53.6164 50.656 54.2177 50.92 54.9364 50.92ZM80.9782 41.724L77.6562 54H73.4982L71.5622 46.036L69.5602 54H65.4242L62.0802 41.724H65.8422L67.5802 50.502L69.6482 41.724H73.6302L75.7202 50.458L77.4362 41.724H80.9782ZM89.8928 41.592C91.3302 41.592 92.4742 42.0613 93.3248 43C94.1902 43.924 94.6228 45.2 94.6228 46.828V54H90.8828V47.334C90.8828 46.5127 90.6702 45.8747 90.2448 45.42C89.8195 44.9653 89.2475 44.738 88.5288 44.738C87.8102 44.738 87.2382 44.9653 86.8128 45.42C86.3875 45.8747 86.1748 46.5127 86.1748 47.334V54H82.4128V41.724H86.1748V43.352C86.5562 42.8093 87.0695 42.384 87.7148 42.076C88.3602 41.7533 89.0862 41.592 89.8928 41.592ZM100.999 37.72V54H97.237V37.72H100.999ZM109.313 54.176C108.111 54.176 107.025 53.9193 106.057 53.406C105.104 52.8927 104.349 52.1593 103.791 51.206C103.249 50.2527 102.977 49.138 102.977 47.862C102.977 46.6007 103.256 45.4933 103.813 44.54C104.371 43.572 105.133 42.8313 106.101 42.318C107.069 41.8047 108.155 41.548 109.357 41.548C110.56 41.548 111.645 41.8047 112.613 42.318C113.581 42.8313 114.344 43.572 114.901 44.54C115.459 45.4933 115.737 46.6007 115.737 47.862C115.737 49.1233 115.451 50.238 114.879 51.206C114.322 52.1593 113.552 52.8927 112.569 53.406C111.601 53.9193 110.516 54.176 109.313 54.176ZM109.313 50.92C110.032 50.92 110.641 50.656 111.139 50.128C111.653 49.6 111.909 48.8447 111.909 47.862C111.909 46.8793 111.66 46.124 111.161 45.596C110.677 45.068 110.076 44.804 109.357 44.804C108.624 44.804 108.015 45.068 107.531 45.596C107.047 46.1093 106.805 46.8647 106.805 47.862C106.805 48.8447 107.04 49.6 107.509 50.128C107.993 50.656 108.595 50.92 109.313 50.92ZM116.985 47.84C116.985 46.5787 117.22 45.4713 117.689 44.518C118.173 43.5647 118.826 42.8313 119.647 42.318C120.468 41.8047 121.385 41.548 122.397 41.548C123.262 41.548 124.018 41.724 124.663 42.076C125.323 42.428 125.829 42.89 126.181 43.462V41.724H129.943V54H126.181V52.262C125.814 52.834 125.301 53.296 124.641 53.648C123.996 54 123.24 54.176 122.375 54.176C121.378 54.176 120.468 53.9193 119.647 53.406C118.826 52.878 118.173 52.1373 117.689 51.184C117.22 50.216 116.985 49.1013 116.985 47.84ZM126.181 47.862C126.181 46.9233 125.917 46.1827 125.389 45.64C124.876 45.0973 124.245 44.826 123.497 44.826C122.749 44.826 122.111 45.0973 121.583 45.64C121.07 46.168 120.813 46.9013 120.813 47.84C120.813 48.7787 121.07 49.5267 121.583 50.084C122.111 50.6267 122.749 50.898 123.497 50.898C124.245 50.898 124.876 50.6267 125.389 50.084C125.917 49.5413 126.181 48.8007 126.181 47.862ZM131.917 47.84C131.917 46.5787 132.151 45.4713 132.621 44.518C133.105 43.5647 133.757 42.8313 134.579 42.318C135.4 41.8047 136.317 41.548 137.329 41.548C138.135 41.548 138.869 41.7167 139.529 42.054C140.203 42.3913 140.731 42.846 141.113 43.418V37.72H144.875V54H141.113V52.24C140.761 52.8267 140.255 53.296 139.595 53.648C138.949 54 138.194 54.176 137.329 54.176C136.317 54.176 135.4 53.9193 134.579 53.406C133.757 52.878 133.105 52.1373 132.621 51.184C132.151 50.216 131.917 49.1013 131.917 47.84ZM141.113 47.862C141.113 46.9233 140.849 46.1827 140.321 45.64C139.807 45.0973 139.177 44.826 138.429 44.826C137.681 44.826 137.043 45.0973 136.515 45.64C136.001 46.168 135.745 46.9013 135.745 47.84C135.745 48.7787 136.001 49.5267 136.515 50.084C137.043 50.6267 137.681 50.898 138.429 50.898C139.177 50.898 139.807 50.6267 140.321 50.084C140.849 49.5413 141.113 48.8007 141.113 47.862ZM159.739 41.592C161.176 41.592 162.32 42.0613 163.171 43C164.036 43.924 164.469 45.2 164.469 46.828V54H160.729V47.334C160.729 46.5127 160.516 45.8747 160.091 45.42C159.665 44.9653 159.093 44.738 158.375 44.738C157.656 44.738 157.084 44.9653 156.659 45.42C156.233 45.8747 156.021 46.5127 156.021 47.334V54H152.259V41.724H156.021V43.352C156.402 42.8093 156.915 42.384 157.561 42.076C158.206 41.7533 158.932 41.592 159.739 41.592ZM172.671 54.176C171.468 54.176 170.383 53.9193 169.415 53.406C168.461 52.8927 167.706 52.1593 167.149 51.206C166.606 50.2527 166.335 49.138 166.335 47.862C166.335 46.6007 166.613 45.4933 167.171 44.54C167.728 43.572 168.491 42.8313 169.459 42.318C170.427 41.8047 171.512 41.548 172.715 41.548C173.917 41.548 175.003 41.8047 175.971 42.318C176.939 42.8313 177.701 43.572 178.259 44.54C178.816 45.4933 179.095 46.6007 179.095 47.862C179.095 49.1233 178.809 50.238 178.237 51.206C177.679 52.1593 176.909 52.8927 175.927 53.406C174.959 53.9193 173.873 54.176 172.671 54.176ZM172.671 50.92C173.389 50.92 173.998 50.656 174.497 50.128C175.01 49.6 175.267 48.8447 175.267 47.862C175.267 46.8793 175.017 46.124 174.519 45.596C174.035 45.068 173.433 44.804 172.715 44.804C171.981 44.804 171.373 45.068 170.889 45.596C170.405 46.1093 170.163 46.8647 170.163 47.862C170.163 48.8447 170.397 49.6 170.867 50.128C171.351 50.656 171.952 50.92 172.671 50.92ZM198.713 41.724L195.391 54H191.233L189.297 46.036L187.295 54H183.159L179.815 41.724H183.577L185.315 50.502L187.383 41.724H191.365L193.455 50.458L195.171 41.724H198.713Z" fill="#FFFCF2"/>
</g>
<defs>
<filter id="filter0_d_306_1563" x="0" y="0" width="253" height="116" filterUnits="userSpaceOnUse" color-interpolation-filters="sRGB">
<feFlood flood-opacity="0" result="BackgroundImageFix"/>
<feColorMatrix in="SourceAlpha" type="matrix" values="0 0 0 0 0 0 0 0 0 0 0 0 0 0 0 0 0 0 127 0" result="hardAlpha"/>
<feOffset dx="12" dy="12"/>
<feGaussianBlur stdDeviation="15"/>
<feComposite in2="hardAlpha" operator="out"/>
<feColorMatrix type="matrix" values="0 0 0 0 0.996078 0 0 0 0 0.372549 0 0 0 0 0 0 0 0 0.15 0"/>
<feBlend mode="normal" in2="BackgroundImageFix" result="effect1_dropShadow_306_1563"/>
<feBlend mode="normal" in="SourceGraphic" in2="effect1_dropShadow_306_1563" result="shape"/>
</filter>
</defs>
</svg>
